<svg width="40" height="28" viewBox="0 0 40 28" fill="none" xmlns="http://www.w3.org/2000/svg">
<g id="VN square flag" clip-path="url(#clip0_5585_83715)">
<path id="Vector" d="M4.44444 0.5H35.5556C36.6066 0.5 37.6117 0.904841 38.3503 1.62073C39.0883 2.3361 39.5 3.30296 39.5 4.30769V23.6923C39.5 24.697 39.0883 25.6639 38.3503 26.3793C37.6117 27.0952 36.6066 27.5 35.5556 27.5H4.44444C3.39336 27.5 2.38835 27.0952 1.64973 26.3793C0.911653 25.6639 0.5 24.697 0.5 23.6923V4.30769C0.5 3.30296 0.911653 2.3361 1.64973 1.62073C2.38835 0.904841 3.39336 0.5 4.44444 0.5Z" fill="#DA251D" stroke="white"/>
<path id="Vector_2" d="M21.6527 12.348L20 7L18.3473 12.348H13L17.3263 15.652L15.6737 21L20 17.695L24.3263 21L22.6737 15.652L27 12.348H21.6527Z" fill="#FFFF00"/>
</g>
<defs>
<clipPath id="clip0_5585_83715">
<rect width="40" height="28" fill="white"/>
</clipPath>
</defs>
</svg>
