<svg width="40" height="28" viewBox="0 0 40 28" fill="none" xmlns="http://www.w3.org/2000/svg">
<g id="Group">
<g id="Clip path group">
<mask id="mask0_5589_116" style="mask-type:luminance" maskUnits="userSpaceOnUse" x="0" y="0" width="40" height="28">
<g id="flagpackGbUkm3">
<path id="Vector" d="M0 0H40V28H0V0Z" fill="white"/>
</g>
</mask>
<g mask="url(#mask0_5589_116)">
<g id="Group_2">
<path id="Vector_2" d="M0 0H40V28H0V0Z" fill="white"/>
<path id="Vector_3" fill-rule="evenodd" clip-rule="evenodd" d="M0 0V28H40V0H0Z" fill="#2E42A5"/>
<g id="Mask group">
<mask id="mask1_5589_116" style="mask-type:luminance" maskUnits="userSpaceOnUse" x="0" y="0" width="40" height="28">
<g id="Group_3">
<path id="Vector_4" fill-rule="evenodd" clip-rule="evenodd" d="M0 0V28H40V0H0Z" fill="white"/>
</g>
</mask>
<g mask="url(#mask1_5589_116)">
<g id="Group_4">
<path id="Vector_5" d="M-4.45361 25.9991L4.34889 29.4746L40.1989 3.77762L44.8426 -1.38604L35.4301 -2.54688L20.8076 8.52596L9.03764 15.988L-4.45361 25.9991Z" fill="white"/>
<path id="Vector_6" d="M-3.25 28.434L1.23625 30.45L43.175 -1.86548H36.8787L-3.24875 28.4329L-3.25 28.434Z" fill="#F50100"/>
<path id="Vector_7" d="M44.4535 25.9991L35.651 29.4746L-0.199023 3.77762L-4.84277 -1.38604L4.56973 -2.54688L19.1922 8.52596L30.9622 15.988L44.4535 25.9991Z" fill="white"/>
<path id="Vector_8" d="M44.1537 27.7467L39.6687 29.7627L21.8112 15.926L16.5162 14.3813L-5.29004 -1.36865H1.00746L22.8 14.008L28.5887 15.8607L44.1537 27.7467Z" fill="#F50100"/>
<path id="Vector_9" fill-rule="evenodd" clip-rule="evenodd" d="M24.7227 -2.3335H15.2777V9.33317H-2.46484V18.6665H15.2777V30.3332H24.7227V18.6665H42.5352V9.33317H24.7227V-2.3335Z" fill="#F50100"/>
<g id="Mask group_2">
<mask id="mask2_5589_116" style="mask-type:luminance" maskUnits="userSpaceOnUse" x="-3" y="-3" width="46" height="34">
<g id="Group_5">
<path id="Vector_10" fill-rule="evenodd" clip-rule="evenodd" d="M24.7227 -2.3335H15.2777V9.33317H-2.46484V18.6665H15.2777V30.3332H24.7227V18.6665H42.5352V9.33317H24.7227V-2.3335Z" fill="white"/>
</g>
</mask>
<g mask="url(#mask2_5589_116)">
<path id="Vector_11" d="M15.2777 -2.33341V-4.66675H12.7777V-2.33341H15.2777ZM24.7227 -2.33341H27.2227V-4.66675H24.7227V-2.33341ZM15.2777 9.33325V11.6666H17.7777V9.33325H15.2777ZM-2.46484 9.33325V6.99992H-4.96484V9.33325H-2.46484ZM-2.46484 18.6666H-4.96484V20.9999H-2.46484V18.6666ZM15.2777 18.6666H17.7777V16.3333H15.2777V18.6666ZM15.2777 30.3333H12.7777V32.6666H15.2777V30.3333ZM24.7227 30.3333V32.6666H27.2227V30.3333H24.7227ZM24.7227 18.6666V16.3333H22.2227V18.6666H24.7227ZM42.5352 18.6666V20.9999H45.0352V18.6666H42.5352ZM42.5352 9.33325H45.0352V6.99992H42.5352V9.33325ZM24.7227 9.33325H22.2227V11.6666H24.7227V9.33325ZM15.2777 -8.10623e-05H24.7227V-4.66675H15.2777V-8.10623e-05ZM17.7777 9.33325V-2.33341H12.7777V9.33325H17.7777ZM-2.46484 11.6666H15.2777V6.99992H-2.46484V11.6666ZM0.0351562 18.6666V9.33325H-4.96484V18.6666H0.0351562ZM15.2777 16.3333H-2.46484V20.9999H15.2777V16.3333ZM17.7777 30.3333V18.6666H12.7777V30.3333H17.7777ZM24.7227 27.9999H15.2777V32.6666H24.7227V27.9999ZM22.2227 18.6666V30.3333H27.2227V18.6666H22.2227ZM42.5352 16.3333H24.7227V20.9999H42.5352V16.3333ZM40.0352 9.33325V18.6666H45.0352V9.33325H40.0352ZM24.7227 11.6666H42.5352V6.99992H24.7227V11.6666ZM22.2227 -2.33341V9.33325H27.2227V-2.33341H22.2227Z" fill="white"/>
</g>
</g>
</g>
</g>
</g>
</g>
</g>
</g>
</g>
</svg>
